<svg xmlns="http://www.w3.org/2000/svg" width="1600" height="1000" viewBox="0 0 1600 1000"><defs><linearGradient id="bg" x2="1" y2="1"><stop stop-color="#081018"/><stop offset="1" stop-color="#101b28"/></linearGradient><linearGradient id="card" x2="0" y2="1"><stop stop-color="#172332"/><stop offset="1" stop-color="#101923"/></linearGradient><linearGradient id="area" x2="0" y2="1"><stop stop-color="#2678ff" stop-opacity=".35"/><stop offset="1" stop-color="#2678ff" stop-opacity="0"/></linearGradient><filter id="shadow"><feGaussianBlur stdDeviation="12"/></filter></defs><rect width="1600" height="1000" fill="url(#bg)"/><rect x="0" width="235" height="1000" fill="#0b141e"/><circle cx="35" cy="38" r="7" fill="#28d7a0"/><text x="55" y="46" fill="#f3f7fb" font-size="24" font-family="Arial" font-weight="700">QUANTSYS</text><text x="28" y="80" fill="#708195" font-size="12" font-family="Arial">PROFESSIONAL TRADING DESK</text><g font-family="Arial" font-size="15"><rect x="16" y="133" width="203" height="48" rx="9" fill="#1d3b67"/><text x="36" y="163" fill="#fff">◉　今日执行</text><text x="36" y="218" fill="#9aaabd">▣　市场数据</text><text x="36" y="273" fill="#9aaabd">◈　iFinD 数据</text><text x="36" y="328" fill="#9aaabd">◆　策略研究</text><text x="36" y="383" fill="#9aaabd">⚙　系统设置</text></g><line x1="18" y1="430" x2="217" y2="430" stroke="#223243"/><text x="28" y="468" fill="#65778a" font-size="11" font-family="Arial">WATCHLIST</text><g font-family="Arial" font-size="13"><text x="32" y="505" fill="#dbe5ef">贵州茅台 <tspan fill="#f04444">+2.18%</tspan></text><text x="32" y="538" fill="#dbe5ef">宁德时代 <tspan fill="#f04444">+1.42%</tspan></text><text x="32" y="571" fill="#dbe5ef">招商银行 <tspan fill="#28d7a0">-0.36%</tspan></text></g><text x="275" y="55" fill="#f3f7fb" font-size="27" font-family="Arial" font-weight="700">回测浏览</text><text x="275" y="82" fill="#73859a" font-size="13" font-family="Arial">周三 · 2026/09/04 · A 股交易时段</text><rect x="1320" y="35" width="110" height="36" rx="8" fill="#216fe9"/><text x="1347" y="58" fill="#fff" font-size="13" font-family="Arial">刷新数据</text><text x="1460" y="58" fill="#28d7a0" font-size="13" font-family="Arial">● LIVE</text><g font-family="Arial"><g><rect x="275" y="120" width="295" height="120" rx="12" fill="url(#card)" stroke="#243548"/><text x="298" y="153" fill="#8395a8" font-size="13">账户总资产</text><text x="298" y="199" fill="#f3f7fb" font-size="31" font-weight="700">¥1,284,560</text><text x="458" y="226" fill="#28d7a0" font-size="12">↑ 4.72%</text></g><g><rect x="590" y="120" width="295" height="120" rx="12" fill="url(#card)" stroke="#243548"/><text x="613" y="153" fill="#8395a8" font-size="13">今日盈亏</text><text x="613" y="199" fill="#f04444" font-size="31" font-weight="700">+¥30,850</text><text x="613" y="226" fill="#f04444" font-size="12">+2.43%　跑赢沪深300</text></g><g><rect x="905" y="120" width="295" height="120" rx="12" fill="url(#card)" stroke="#243548"/><text x="928" y="153" fill="#8395a8" font-size="13">策略信号</text><text x="928" y="199" fill="#f3f7fb" font-size="31" font-weight="700">08</text><text x="1000" y="199" fill="#28d7a0" font-size="15">↑ 3 较昨日</text><text x="928" y="226" fill="#8395a8" font-size="12">趋势突破 5　资金回流 3</text></g><g><rect x="1220" y="120" width="210" height="120" rx="12" fill="url(#card)" stroke="#243548"/><text x="1243" y="153" fill="#8395a8" font-size="13">风险评分</text><text x="1243" y="199" fill="#f2b84b" font-size="31" font-weight="700">72</text><text x="1243" y="226" fill="#f2b84b" font-size="12">中等风险 · 回撤 4.8%</text></g></g><rect x="275" y="270" width="760" height="390" rx="12" fill="#111b26" stroke="#243548"/><text x="300" y="306" fill="#f3f7fb" font-size="17" font-family="Arial" font-weight="700">组合净值</text><text x="895" y="306" fill="#73859a" font-size="12" font-family="Arial">20D　60D　1Y</text><g stroke="#233342"><line x1="310" y1="350" x2="1000" y2="350"/><line x1="310" y1="425" x2="1000" y2="425"/><line x1="310" y1="500" x2="1000" y2="500"/><line x1="310" y1="575" x2="1000" y2="575"/></g><path d="M310 560 L370 535 L430 548 L490 470 L550 488 L610 420 L670 438 L730 370 L790 392 L850 335 L910 355 L1000 300 L1000 600 L310 600Z" fill="url(#area)"/><polyline points="310,560 370,535 430,548 490,470 550,488 610,420 670,438 730,370 790,392 850,335 910,355 1000,300" fill="none" stroke="#4d9aff" stroke-width="4"/><circle cx="1000" cy="300" r="6" fill="#fff" stroke="#4d9aff" stroke-width="3"/><text x="945" y="285" fill="#4d9aff" font-size="12" font-family="Arial">+12.84%</text><rect x="1055" y="270" width="375" height="390" rx="12" fill="#111b26" stroke="#243548"/><text x="1080" y="306" fill="#f3f7fb" font-size="17" font-family="Arial" font-weight="700">实时信号</text><g font-family="Arial" font-size="13"><line x1="1080" y1="340" x2="1405" y2="340" stroke="#243548"/><text x="1080" y="370" fill="#e8eef5">贵州茅台</text><text x="1080" y="392" fill="#8797a8" font-size="12">趋势突破 · 置信度 92%</text><rect x="1340" y="360" width="62" height="25" rx="12" fill="#4d2029"/><text x="1355" y="377" fill="#ff6f78" font-size="11">买入</text><text x="1080" y="440" fill="#e8eef5">宁德时代</text><text x="1080" y="462" fill="#8797a8" font-size="12">动量增强 · 置信度 86%</text><rect x="1340" y="430" width="62" height="25" rx="12" fill="#4d2029"/><text x="1355" y="447" fill="#ff6f78" font-size="11">买入</text><text x="1080" y="510" fill="#e8eef5">招商银行</text><text x="1080" y="532" fill="#8797a8" font-size="12">资金流出 · 置信度 74%</text><rect x="1340" y="500" width="62" height="25" rx="12" fill="#123d36"/><text x="1355" y="517" fill="#28d7a0" font-size="11">卖出</text><text x="1080" y="580" fill="#e8eef5">中证 500</text><text x="1080" y="602" fill="#8797a8" font-size="12">波动上升 · 等待确认</text><rect x="1340" y="570" width="62" height="25" rx="12" fill="#493b1d"/><text x="1355" y="587" fill="#f2b84b" font-size="11">关注</text></g><rect x="275" y="690" width="1155" height="225" rx="12" fill="#111b26" stroke="#243548"/><text x="300" y="727" fill="#f3f7fb" font-size="17" font-family="Arial" font-weight="700">市场概览</text><g font-family="Arial" font-size="13"><text x="300" y="770" fill="#718398">指数</text><text x="580" y="770" fill="#718398">最新点位</text><text x="760" y="770" fill="#718398">涨跌幅</text><text x="940" y="770" fill="#718398">成交额</text><text x="1140" y="770" fill="#718398">市场宽度</text><text x="300" y="812" fill="#e8eef5">上证指数</text><text x="580" y="812" fill="#e8eef5">3,382.41</text><text x="760" y="812" fill="#f04444">+0.86%</text><text x="940" y="812" fill="#e8eef5">4,821 亿</text><rect x="1140" y="802" width="190" height="9" rx="4" fill="#243342"/><rect x="1140" y="802" width="140" height="9" rx="4" fill="#f04444"/><text x="300" y="852" fill="#e8eef5">深证成指</text><text x="580" y="852" fill="#e8eef5">10,752.18</text><text x="760" y="852" fill="#f04444">+1.24%</text><text x="940" y="852" fill="#e8eef5">6,105 亿</text><rect x="1140" y="842" width="190" height="9" rx="4" fill="#243342"/><rect x="1140" y="842" width="165" height="9" rx="4" fill="#f04444"/></g><text x="275" y="960" fill="#607286" font-size="12" font-family="Arial">系统状态　行情连接正常　·　iFinD 同步正常　·　最后更新 10:24:08</text></svg>
